<mxfile host="app.diagrams.net" agent="Mozilla/5.0 (Windows NT 10.0; Win64; x64) AppleWebKit/537.36 (KHTML, like Gecko) Chrome/126.0.0.0 Safari/537.36" version="24.7.7">
  <diagram name="Page-1" id="mYbzPxiFIjTHH43S3c0c">
    <mxGraphModel dx="954" dy="592" grid="1" gridSize="10" guides="1" tooltips="1" connect="1" arrows="1" fold="1" page="1" pageScale="1" pageWidth="850" pageHeight="1100" math="0" shadow="0">
      <root>
        <mxCell id="0" />
        <mxCell id="1" parent="0" />
        <mxCell id="z5kc3yUxlEGWvgqWlMP4-1" value="Pendaftaran manual" style="swimlane;childLayout=stackLayout;resizeParent=1;resizeParentMax=0;startSize=20;html=1;" vertex="1" parent="1">
          <mxGeometry x="240.00000000000045" y="70" width="400" height="630" as="geometry" />
        </mxCell>
        <mxCell id="z5kc3yUxlEGWvgqWlMP4-2" value="Peserta" style="swimlane;startSize=20;html=1;" vertex="1" parent="z5kc3yUxlEGWvgqWlMP4-1">
          <mxGeometry y="20" width="200" height="610" as="geometry" />
        </mxCell>
        <mxCell id="z5kc3yUxlEGWvgqWlMP4-6" value="Formulir" style="shape=document;whiteSpace=wrap;html=1;boundedLbl=1;" vertex="1" parent="z5kc3yUxlEGWvgqWlMP4-2">
          <mxGeometry x="54.999999999999545" y="150" width="90" height="60" as="geometry" />
        </mxCell>
        <mxCell id="z5kc3yUxlEGWvgqWlMP4-10" value="mengisi&lt;div&gt;Formulir&lt;/div&gt;" style="verticalLabelPosition=middle;verticalAlign=middle;html=1;shape=trapezoid;perimeter=trapezoidPerimeter;whiteSpace=wrap;size=0.23;arcSize=10;flipV=1;labelPosition=center;align=center;" vertex="1" parent="z5kc3yUxlEGWvgqWlMP4-2">
          <mxGeometry x="50" y="230" width="100" height="50" as="geometry" />
        </mxCell>
        <mxCell id="z5kc3yUxlEGWvgqWlMP4-8" value="&lt;div&gt;&lt;span style=&quot;background-color: initial;&quot;&gt;Formulir&lt;/span&gt;&lt;br&gt;&lt;/div&gt;&lt;div&gt;&lt;span style=&quot;background-color: initial;&quot;&gt;sudah di isi&lt;/span&gt;&lt;/div&gt;" style="shape=document;whiteSpace=wrap;html=1;boundedLbl=1;" vertex="1" parent="z5kc3yUxlEGWvgqWlMP4-2">
          <mxGeometry x="54.999999999999545" y="310" width="90" height="60" as="geometry" />
        </mxCell>
        <mxCell id="z5kc3yUxlEGWvgqWlMP4-22" value="" style="endArrow=classic;html=1;rounded=0;entryX=0.5;entryY=0;entryDx=0;entryDy=0;exitX=0.5;exitY=0.839;exitDx=0;exitDy=0;exitPerimeter=0;" edge="1" parent="z5kc3yUxlEGWvgqWlMP4-2" source="z5kc3yUxlEGWvgqWlMP4-6" target="z5kc3yUxlEGWvgqWlMP4-10">
          <mxGeometry width="50" height="50" relative="1" as="geometry">
            <mxPoint x="265" y="190" as="sourcePoint" />
            <mxPoint x="155" y="190" as="targetPoint" />
          </mxGeometry>
        </mxCell>
        <mxCell id="z5kc3yUxlEGWvgqWlMP4-23" value="" style="endArrow=classic;html=1;rounded=0;entryX=0.5;entryY=0;entryDx=0;entryDy=0;exitX=0.5;exitY=1;exitDx=0;exitDy=0;" edge="1" parent="z5kc3yUxlEGWvgqWlMP4-2" source="z5kc3yUxlEGWvgqWlMP4-10" target="z5kc3yUxlEGWvgqWlMP4-8">
          <mxGeometry width="50" height="50" relative="1" as="geometry">
            <mxPoint x="110" y="210" as="sourcePoint" />
            <mxPoint x="110" y="260" as="targetPoint" />
          </mxGeometry>
        </mxCell>
        <mxCell id="z5kc3yUxlEGWvgqWlMP4-3" value="Petugas" style="swimlane;startSize=20;html=1;" vertex="1" parent="z5kc3yUxlEGWvgqWlMP4-1">
          <mxGeometry x="200" y="20" width="200" height="610" as="geometry" />
        </mxCell>
        <mxCell id="z5kc3yUxlEGWvgqWlMP4-7" value="Formulir" style="shape=document;whiteSpace=wrap;html=1;boundedLbl=1;" vertex="1" parent="z5kc3yUxlEGWvgqWlMP4-3">
          <mxGeometry x="54.999999999999545" y="150" width="90" height="60" as="geometry" />
        </mxCell>
        <mxCell id="z5kc3yUxlEGWvgqWlMP4-5" value="Mulai" style="ellipse;whiteSpace=wrap;html=1;" vertex="1" parent="z5kc3yUxlEGWvgqWlMP4-3">
          <mxGeometry x="55" y="50" width="90" height="60" as="geometry" />
        </mxCell>
        <mxCell id="z5kc3yUxlEGWvgqWlMP4-9" value="memeriksa&lt;div&gt;Formulir&lt;/div&gt;" style="shape=document;whiteSpace=wrap;html=1;boundedLbl=1;" vertex="1" parent="z5kc3yUxlEGWvgqWlMP4-3">
          <mxGeometry x="54.999999999999545" y="310" width="90" height="60" as="geometry" />
        </mxCell>
        <mxCell id="z5kc3yUxlEGWvgqWlMP4-11" value="Formulir&amp;nbsp;&lt;span style=&quot;background-color: initial;&quot;&gt;di&lt;/span&gt;&lt;div&gt;proses&lt;/div&gt;" style="verticalLabelPosition=middle;verticalAlign=middle;html=1;shape=trapezoid;perimeter=trapezoidPerimeter;whiteSpace=wrap;size=0.23;arcSize=10;flipV=1;labelPosition=center;align=center;" vertex="1" parent="z5kc3yUxlEGWvgqWlMP4-3">
          <mxGeometry x="55" y="390" width="100" height="50" as="geometry" />
        </mxCell>
        <mxCell id="z5kc3yUxlEGWvgqWlMP4-20" value="" style="endArrow=classic;html=1;rounded=0;exitX=0.5;exitY=1;exitDx=0;exitDy=0;" edge="1" parent="z5kc3yUxlEGWvgqWlMP4-3" source="z5kc3yUxlEGWvgqWlMP4-5" target="z5kc3yUxlEGWvgqWlMP4-7">
          <mxGeometry width="50" height="50" relative="1" as="geometry">
            <mxPoint x="139.99999999999955" y="300" as="sourcePoint" />
            <mxPoint x="189.99999999999955" y="250" as="targetPoint" />
          </mxGeometry>
        </mxCell>
        <mxCell id="z5kc3yUxlEGWvgqWlMP4-26" value="" style="endArrow=classic;html=1;rounded=0;exitX=0.546;exitY=0.797;exitDx=0;exitDy=0;exitPerimeter=0;entryX=0.5;entryY=0;entryDx=0;entryDy=0;" edge="1" parent="z5kc3yUxlEGWvgqWlMP4-3" source="z5kc3yUxlEGWvgqWlMP4-9" target="z5kc3yUxlEGWvgqWlMP4-11">
          <mxGeometry width="50" height="50" relative="1" as="geometry">
            <mxPoint x="139.99999999999955" y="550" as="sourcePoint" />
            <mxPoint x="189.99999999999955" y="500" as="targetPoint" />
          </mxGeometry>
        </mxCell>
        <mxCell id="z5kc3yUxlEGWvgqWlMP4-35" value="Formulir yg&lt;div&gt;telah di proses&lt;/div&gt;" style="shape=document;whiteSpace=wrap;html=1;boundedLbl=1;" vertex="1" parent="z5kc3yUxlEGWvgqWlMP4-3">
          <mxGeometry x="60" y="480" width="90" height="50" as="geometry" />
        </mxCell>
        <mxCell id="z5kc3yUxlEGWvgqWlMP4-39" value="selesai" style="ellipse;whiteSpace=wrap;html=1;aspect=fixed;" vertex="1" parent="z5kc3yUxlEGWvgqWlMP4-3">
          <mxGeometry x="80" y="550" width="50" height="50" as="geometry" />
        </mxCell>
        <mxCell id="z5kc3yUxlEGWvgqWlMP4-43" value="" style="endArrow=classic;html=1;rounded=0;exitX=0.5;exitY=1;exitDx=0;exitDy=0;" edge="1" parent="z5kc3yUxlEGWvgqWlMP4-3" source="z5kc3yUxlEGWvgqWlMP4-11" target="z5kc3yUxlEGWvgqWlMP4-35">
          <mxGeometry width="50" height="50" relative="1" as="geometry">
            <mxPoint x="119.99999999999955" y="490" as="sourcePoint" />
            <mxPoint x="169.99999999999955" y="440" as="targetPoint" />
          </mxGeometry>
        </mxCell>
        <mxCell id="z5kc3yUxlEGWvgqWlMP4-44" value="" style="endArrow=classic;html=1;rounded=0;exitX=0.482;exitY=0.868;exitDx=0;exitDy=0;entryX=0.5;entryY=0;entryDx=0;entryDy=0;exitPerimeter=0;" edge="1" parent="z5kc3yUxlEGWvgqWlMP4-3" source="z5kc3yUxlEGWvgqWlMP4-35" target="z5kc3yUxlEGWvgqWlMP4-39">
          <mxGeometry width="50" height="50" relative="1" as="geometry">
            <mxPoint x="115" y="495" as="sourcePoint" />
            <mxPoint x="115" y="530" as="targetPoint" />
          </mxGeometry>
        </mxCell>
        <mxCell id="z5kc3yUxlEGWvgqWlMP4-45" value="" style="triangle;whiteSpace=wrap;html=1;rotation=90;" vertex="1" parent="z5kc3yUxlEGWvgqWlMP4-3">
          <mxGeometry x="154.99999999999955" y="540" width="30" height="40" as="geometry" />
        </mxCell>
        <mxCell id="z5kc3yUxlEGWvgqWlMP4-40" value="" style="endArrow=classic;html=1;rounded=0;exitX=1;exitY=0.5;exitDx=0;exitDy=0;entryX=0;entryY=0.5;entryDx=0;entryDy=0;" edge="1" parent="z5kc3yUxlEGWvgqWlMP4-3" source="z5kc3yUxlEGWvgqWlMP4-35" target="z5kc3yUxlEGWvgqWlMP4-45">
          <mxGeometry width="50" height="50" relative="1" as="geometry">
            <mxPoint x="119.99999999999955" y="490" as="sourcePoint" />
            <mxPoint x="169.99999999999955" y="590" as="targetPoint" />
            <Array as="points">
              <mxPoint x="169.99999999999955" y="505" />
            </Array>
          </mxGeometry>
        </mxCell>
        <mxCell id="z5kc3yUxlEGWvgqWlMP4-21" value="" style="endArrow=classic;html=1;rounded=0;exitX=0;exitY=0.5;exitDx=0;exitDy=0;entryX=1;entryY=0.5;entryDx=0;entryDy=0;" edge="1" parent="z5kc3yUxlEGWvgqWlMP4-1" source="z5kc3yUxlEGWvgqWlMP4-7" target="z5kc3yUxlEGWvgqWlMP4-6">
          <mxGeometry width="50" height="50" relative="1" as="geometry">
            <mxPoint x="310" y="140" as="sourcePoint" />
            <mxPoint x="310" y="180" as="targetPoint" />
          </mxGeometry>
        </mxCell>
        <mxCell id="z5kc3yUxlEGWvgqWlMP4-24" value="" style="endArrow=classic;html=1;rounded=0;exitX=1;exitY=0.5;exitDx=0;exitDy=0;entryX=0;entryY=0.5;entryDx=0;entryDy=0;" edge="1" parent="z5kc3yUxlEGWvgqWlMP4-1" source="z5kc3yUxlEGWvgqWlMP4-8" target="z5kc3yUxlEGWvgqWlMP4-9">
          <mxGeometry width="50" height="50" relative="1" as="geometry">
            <mxPoint x="110" y="330" as="sourcePoint" />
            <mxPoint x="249.99999999999955" y="400" as="targetPoint" />
          </mxGeometry>
        </mxCell>
      </root>
    </mxGraphModel>
  </diagram>
</mxfile>
